<svg width="48" height="49" viewBox="0 0 48 49" fill="none" xmlns="http://www.w3.org/2000/svg">
<path d="M17 4.5C13.134 4.5 10 7.634 10 11.5C10 11.8603 10.0273 12.2143 10.0799 12.5599C6.64872 13.0105 4 15.9459 4 19.5C4 21.4586 4.80446 23.2294 6.10102 24.5C4.80446 25.7706 4 27.5414 4 29.5C4 32.3036 5.64718 34.7208 8.02706 35.8386C8.00914 36.057 8 36.2776 8 36.5C8 40.9182 11.5817 44.5 16 44.5C18.3894 44.5 20.5342 43.4524 22 41.7916V6.60102C20.7294 5.30446 18.9587 4.5 17 4.5ZM26 6.60102V41.7916C27.4658 43.4524 29.6106 44.5 32 44.5C36.4182 44.5 40 40.9182 40 36.5C40 36.2776 39.9908 36.057 39.973 35.8386C42.3528 34.7208 44 32.3036 44 29.5C44 27.5414 43.1956 25.7706 41.899 24.5C43.1956 23.2294 44 21.4586 44 19.5C44 15.9459 41.3512 13.0105 37.9202 12.5599C37.9728 12.2143 38 11.8603 38 11.5C38 7.634 34.866 4.5 31 4.5C29.0414 4.5 27.2706 5.30446 26 6.60102Z" fill="#E0708A"/>
</svg>
