<svg width="48" height="49" viewBox="0 0 48 49" fill="none" xmlns="http://www.w3.org/2000/svg">
<path d="M22 4.5C30.135 4.5 36.852 10.5712 37.8674 18.4299L42.3684 25.5074C42.6648 25.9734 42.605 26.6694 41.9186 26.9634L38 28.642V34.5C38 36.7092 36.2092 38.5 34 38.5H30.002L30 44.5H12L12.0005 37.1122C12.0007 34.7504 11.127 32.5174 9.511 30.5022C7.31414 27.7626 6 24.2848 6 20.5C6 11.6634 13.1634 4.5 22 4.5ZM20.9394 16.0251C19.5725 14.6583 17.3564 14.6583 15.9896 16.0251C14.6228 17.392 14.6228 19.608 15.9896 20.9748L22 26.9852L28.0104 20.9748C29.3772 19.608 29.3772 17.392 28.0104 16.0251C26.6436 14.6583 24.4274 14.6583 23.0606 16.0251L22 17.0858L20.9394 16.0251Z" fill="#E0708A"/>
</svg>
