<svg width="41" height="41" viewBox="0 0 41 41" fill="none" xmlns="http://www.w3.org/2000/svg">
<path d="M10.8413 10.4469C13.4074 8.39414 16.6624 7.16669 20.2041 7.16669C23.7458 7.16669 27.0008 8.39414 29.5669 10.4469L31.9893 8.02455L34.3463 10.3816L31.9239 12.8039C33.9766 15.37 35.2041 18.625 35.2041 22.1667C35.2041 30.451 28.4884 37.1667 20.2041 37.1667C11.9198 37.1667 5.2041 30.451 5.2041 22.1667C5.2041 18.625 6.43155 15.37 8.48427 12.8039L6.06197 10.3816L8.41898 8.02455L10.8413 10.4469ZM21.8708 20.5V12.992L13.5374 23.8334H18.5374V31.3334L26.8708 20.5H21.8708ZM13.5374 2.16669H26.8708V5.50002H13.5374V2.16669Z" fill="#4A84B9"/>
</svg>
