<svg width="25" height="24" viewBox="0 0 25 24" fill="none" xmlns="http://www.w3.org/2000/svg">
<path d="M8.57626 7.33992L2.19626 8.26492L2.08326 8.28792C1.9122 8.33333 1.75626 8.42333 1.63135 8.54872C1.50645 8.67412 1.41707 8.83041 1.37232 9.00165C1.32758 9.17289 1.32909 9.35293 1.37669 9.5234C1.42429 9.69386 1.51628 9.84864 1.64326 9.97192L6.26526 14.4709L5.17526 20.8259L5.16226 20.9359C5.15179 21.1128 5.18853 21.2894 5.26871 21.4474C5.3489 21.6055 5.46965 21.7394 5.6186 21.8354C5.76755 21.9315 5.93935 21.9862 6.11641 21.994C6.29347 22.0018 6.46943 21.9625 6.62626 21.8799L12.3323 18.8799L18.0253 21.8799L18.1253 21.9259C18.2903 21.9909 18.4697 22.0109 18.645 21.9837C18.8203 21.9565 18.9852 21.8832 19.1229 21.7712C19.2605 21.6592 19.3658 21.5127 19.4281 21.3466C19.4904 21.1804 19.5073 21.0008 19.4773 20.8259L18.3863 14.4709L23.0103 9.97092L23.0883 9.88592C23.1997 9.74869 23.2727 9.58438 23.3 9.40972C23.3272 9.23506 23.3077 9.0563 23.2434 8.89165C23.179 8.72701 23.0722 8.58235 22.9337 8.47244C22.7953 8.36252 22.6302 8.29126 22.4553 8.26592L16.0753 7.33992L13.2233 1.55992C13.1407 1.39246 13.013 1.25144 12.8545 1.15283C12.6959 1.05422 12.513 1.00195 12.3263 1.00195C12.1396 1.00195 11.9566 1.05422 11.7981 1.15283C11.6395 1.25144 11.5118 1.39246 11.4293 1.55992L8.57626 7.33992Z" fill="#EBECC8"/>
</svg>
