<svg width="41" height="40" viewBox="0 0 41 40" fill="none" xmlns="http://www.w3.org/2000/svg">
<mask id="path-1-inside-1_2065_365" fill="white">
<path d="M15.3324 3.33337C22.1115 3.33337 27.709 8.39274 28.5552 14.9416L32.306 20.8395C32.553 21.2279 32.5032 21.8079 31.9312 22.0529L28.6657 23.4517V28.3334C28.6657 30.1744 27.1734 31.6667 25.3324 31.6667H22.0007C21.1093 34.6346 18.3772 36.6667 15.2784 36.6667H13.1555C9.75545 36.6667 6.99921 33.9103 6.99944 30.5102C6.99957 28.542 6.27154 26.6812 4.92486 25.0019C3.09414 22.7189 1.99902 19.8207 1.99902 16.6667C1.99902 9.30291 7.96856 3.33337 15.3324 3.33337ZM35.5882 30.1707L32.8145 28.3215C34.405 25.9404 35.3324 23.0785 35.3324 20.0002C35.3324 16.9217 34.405 14.0599 32.8145 11.6787L35.5882 9.82956C37.5324 12.7398 38.6657 16.2376 38.6657 20.0002C38.6657 23.7627 37.5324 27.2604 35.5882 30.1707Z"/>
</mask>
<path d="M15.3324 3.33337C22.1115 3.33337 27.709 8.39274 28.5552 14.9416L32.306 20.8395C32.553 21.2279 32.5032 21.8079 31.9312 22.0529L28.6657 23.4517V28.3334C28.6657 30.1744 27.1734 31.6667 25.3324 31.6667H22.0007C21.1093 34.6346 18.3772 36.6667 15.2784 36.6667H13.1555C9.75545 36.6667 6.99921 33.9103 6.99944 30.5102C6.99957 28.542 6.27154 26.6812 4.92486 25.0019C3.09414 22.7189 1.99902 19.8207 1.99902 16.6667C1.99902 9.30291 7.96856 3.33337 15.3324 3.33337ZM35.5882 30.1707L32.8145 28.3215C34.405 25.9404 35.3324 23.0785 35.3324 20.0002C35.3324 16.9217 34.405 14.0599 32.8145 11.6787L35.5882 9.82956C37.5324 12.7398 38.6657 16.2376 38.6657 20.0002C38.6657 23.7627 37.5324 27.2604 35.5882 30.1707Z" fill="#4A84B9"/>
<path d="M28.5552 14.9416L26.9023 15.1552L26.9498 15.523L27.1488 15.836L28.5552 14.9416ZM32.306 20.8395L30.8997 21.7339L30.8997 21.734L32.306 20.8395ZM31.9312 22.0529L31.275 20.5208L31.2749 20.5209L31.9312 22.0529ZM28.6657 23.4517L28.0094 21.9197L26.999 22.3525V23.4517H28.6657ZM4.92486 25.0019L3.62461 26.0445L3.62462 26.0445L4.92486 25.0019ZM35.5882 30.1707L34.6637 31.5574L36.0491 32.4811L36.9741 31.0965L35.5882 30.1707ZM32.8145 28.3215L31.4286 27.3958L30.5021 28.783L31.89 29.7083L32.8145 28.3215ZM32.8145 11.6787L31.89 10.292L30.502 11.2173L31.4286 12.6045L32.8145 11.6787ZM35.5882 9.82956L36.9741 8.90374L36.0491 7.51916L34.6637 8.44282L35.5882 9.82956ZM15.3324 5.00004C21.2628 5.00004 26.1621 9.42655 26.9023 15.1552L30.2081 14.728C29.256 7.35893 22.9602 1.66671 15.3324 1.66671V5.00004ZM27.1488 15.836L30.8997 21.7339L33.7124 19.9452L29.9616 14.0472L27.1488 15.836ZM30.8997 21.734C30.8057 21.5862 30.7435 21.3712 30.8039 21.1159C30.836 20.9805 30.9013 20.8456 30.9998 20.7306C31.0985 20.6152 31.2033 20.5515 31.275 20.5208L32.5874 23.5849C33.3388 23.2631 33.8677 22.6433 34.0475 21.884C34.2142 21.1804 34.0533 20.4812 33.7123 19.9451L30.8997 21.734ZM31.2749 20.5209L28.0094 21.9197L29.322 24.9837L32.5875 23.5849L31.2749 20.5209ZM26.999 23.4517V28.3334H30.3324V23.4517H26.999ZM26.999 28.3334C26.999 29.2539 26.2529 30 25.3324 30V33.3334C28.0938 33.3334 30.3324 31.0949 30.3324 28.3334H26.999ZM25.3324 30H22.0007V33.3334H25.3324V30ZM15.2784 35H13.1555V38.3334H15.2784V35ZM8.66611 30.5103C8.66627 28.1051 7.77004 25.8858 6.22509 23.9592L3.62462 26.0445C4.77305 27.4766 5.33288 28.979 5.33277 30.5101L8.66611 30.5103ZM6.2251 23.9592C4.62295 21.9612 3.66569 19.4281 3.66569 16.6667H0.332357C0.332357 20.2133 1.56533 23.4765 3.62461 26.0445L6.2251 23.9592ZM3.66569 16.6667C3.66569 10.2234 8.88903 5.00004 15.3324 5.00004V1.66671C7.04808 1.66671 0.332357 8.38243 0.332357 16.6667H3.66569ZM36.5127 28.784L33.739 26.9348L31.89 29.7083L34.6637 31.5574L36.5127 28.784ZM34.2005 29.2473C35.9683 26.6006 36.999 23.4182 36.999 20.0002H33.6657C33.6657 22.7389 32.8418 25.2801 31.4286 27.3958L34.2005 29.2473ZM36.999 20.0002C36.999 16.582 35.9683 13.3996 34.2004 10.753L31.4286 12.6045C32.8418 14.7201 33.6657 17.2614 33.6657 20.0002H36.999ZM33.739 13.0655L36.5127 11.2163L34.6637 8.44282L31.89 10.292L33.739 13.0655ZM34.2023 10.7554C35.9691 13.4001 36.999 16.5773 36.999 20.0002H40.3324C40.3324 15.898 39.0956 12.0796 36.9741 8.90374L34.2023 10.7554ZM36.999 20.0002C36.999 23.423 35.9691 26.6001 34.2023 29.2449L36.9741 31.0965C39.0956 27.9206 40.3324 24.1024 40.3324 20.0002H36.999ZM13.1555 35C10.676 35 8.66594 32.9899 8.66611 30.5103L5.33277 30.5101C5.33248 34.8307 8.83493 38.3334 13.1555 38.3334V35ZM20.4045 31.1873C19.7248 33.4504 17.6414 35 15.2784 35V38.3334C19.113 38.3334 22.4939 35.8187 23.5969 32.1461L20.4045 31.1873Z" fill="#4A84B9" mask="url(#path-1-inside-1_2065_365)"/>
</svg>
