<svg width="25" height="24" viewBox="0 0 25 24" fill="none" xmlns="http://www.w3.org/2000/svg">
<path d="M8.91025 7.33992L2.53025 8.26492L2.41725 8.28792C2.24619 8.33333 2.09024 8.42333 1.96534 8.54872C1.84044 8.67412 1.75105 8.83041 1.70631 9.00165C1.66157 9.17289 1.66307 9.35293 1.71067 9.5234C1.75827 9.69386 1.85026 9.84864 1.97725 9.97192L6.59925 14.4709L5.50925 20.8259L5.49625 20.9359C5.48577 21.1128 5.52251 21.2894 5.6027 21.4474C5.68288 21.6055 5.80363 21.7394 5.95258 21.8354C6.10153 21.9315 6.27333 21.9862 6.45039 21.994C6.62745 22.0018 6.80341 21.9625 6.96025 21.8799L12.6662 18.8799L18.3592 21.8799L18.4592 21.9259C18.6243 21.9909 18.8037 22.0109 18.979 21.9837C19.1543 21.9565 19.3192 21.8832 19.4568 21.7712C19.5944 21.6592 19.6998 21.5127 19.7621 21.3466C19.8244 21.1804 19.8413 21.0008 19.8112 20.8259L18.7202 14.4709L23.3442 9.97092L23.4222 9.88592C23.5337 9.74869 23.6067 9.58438 23.634 9.40972C23.6612 9.23506 23.6417 9.0563 23.5773 8.89165C23.513 8.72701 23.4062 8.58235 23.2677 8.47244C23.1293 8.36252 22.9642 8.29126 22.7892 8.26592L16.4092 7.33992L13.5572 1.55992C13.4747 1.39246 13.347 1.25144 13.1884 1.15283C13.0299 1.05422 12.8469 1.00195 12.6602 1.00195C12.4736 1.00195 12.2906 1.05422 12.1321 1.15283C11.9735 1.25144 11.8458 1.39246 11.7632 1.55992L8.91025 7.33992Z" fill="#EBECC8"/>
</svg>
