<svg width="41" height="41" viewBox="0 0 41 41" fill="none" xmlns="http://www.w3.org/2000/svg">
<path d="M4.84537 23.1247C4.84059 23.096 4.8468 23.0723 4.86832 23.048C4.89207 23.0212 4.93095 23 4.98213 23H12.0611C12.1432 23 12.2342 23.068 12.2441 23.1827C12.6251 27.6017 13.9383 31.755 15.9861 35.4439C16.0349 35.5318 16.0179 35.6096 15.9865 35.6544C15.9793 35.6647 15.9725 35.6713 15.9679 35.6749C15.9656 35.6767 15.9639 35.6778 15.9628 35.6784L15.9612 35.6793L15.9611 35.6793C15.961 35.6793 15.9602 35.6795 15.9583 35.6795C15.9554 35.6796 15.9439 35.6796 15.9223 35.6732C10.205 33.965 5.84382 29.112 4.84537 23.1247ZM4.98213 18C4.93095 18 4.89207 17.9788 4.86832 17.952C4.8468 17.9277 4.84059 17.904 4.84538 17.8753C5.84383 11.8881 10.205 7.03508 15.9223 5.32701C15.9439 5.32054 15.9554 5.32055 15.9583 5.32064C15.9602 5.3207 15.961 5.32086 15.9611 5.32088L15.9612 5.32091L15.9628 5.32174C15.9639 5.32234 15.9656 5.32342 15.9679 5.32523C15.9725 5.3289 15.9792 5.33542 15.9865 5.34578C16.0179 5.39054 16.0349 5.46833 15.9861 5.55628C13.9383 9.24514 12.6251 13.3984 12.2441 17.8173C12.2342 17.932 12.1432 18 12.0611 18H4.98213ZM36.0793 17.8753C36.0841 17.904 36.0779 17.9277 36.0563 17.952C36.0326 17.9788 35.9937 18 35.9425 18H28.8635C28.7814 18 28.6903 17.932 28.6804 17.8173C28.2994 13.3984 26.9863 9.24515 24.9386 5.55628C24.8897 5.46834 24.9067 5.39055 24.9381 5.34578C24.9454 5.33542 24.9521 5.3289 24.9568 5.32522C24.959 5.32342 24.9607 5.32234 24.9618 5.32174L24.9634 5.32091L24.9636 5.32088C24.9636 5.32086 24.9645 5.3207 24.9663 5.32064C24.9692 5.32055 24.9807 5.32054 25.0024 5.32701C30.7196 7.03508 35.0808 11.8881 36.0793 17.8753ZM35.9425 23C35.9937 23 36.0326 23.0212 36.0563 23.048C36.0779 23.0723 36.0841 23.096 36.0793 23.1247C35.0808 29.112 30.7196 33.965 25.0023 35.6732C24.9807 35.6796 24.9692 35.6796 24.9663 35.6795C24.9645 35.6795 24.9637 35.6793 24.9636 35.6793L24.9636 35.6793L24.9634 35.6793L24.9618 35.6784C24.9607 35.6778 24.959 35.6767 24.9567 35.6749C24.9521 35.6713 24.9454 35.6647 24.9381 35.6544C24.9067 35.6096 24.8897 35.5318 24.9385 35.4439C26.9863 31.755 28.2994 27.6017 28.6804 23.1827C28.6903 23.068 28.7814 23 28.8635 23H35.9425ZM17.2624 23.1426C17.2563 23.0822 17.305 23 17.4104 23H23.5142C23.6196 23 23.6683 23.0822 23.6622 23.1426C23.2992 26.7168 22.2076 30.075 20.5383 33.0672C20.5233 33.0942 20.5093 33.1042 20.501 33.1089C20.4907 33.1149 20.4774 33.1187 20.4622 33.1187C20.4471 33.1187 20.4338 33.1149 20.4234 33.1089C20.4152 33.1042 20.4012 33.0942 20.3862 33.0673C18.7169 30.075 17.6254 26.7169 17.2624 23.1426ZM17.4104 18C17.305 18 17.2563 17.9178 17.2624 17.8574C17.6254 14.2833 18.7169 10.9251 20.3862 7.93293C20.4012 7.90602 20.4152 7.89594 20.4234 7.89123C20.4338 7.88533 20.4471 7.88143 20.4622 7.88143C20.4774 7.88143 20.4907 7.88533 20.501 7.89123C20.5093 7.89594 20.5233 7.90602 20.5383 7.93293C22.2076 10.9251 23.2992 14.2833 23.6622 17.8574C23.6683 17.9178 23.6196 18 23.5142 18H17.4104Z" fill="#4A84B9" stroke="#4A84B9" stroke-width="1.66667"/>
</svg>
