<svg width="16" height="17" viewBox="0 0 16 17" fill="none" xmlns="http://www.w3.org/2000/svg">
<path d="M12 5.83329H13.3333C13.7015 5.83329 14 6.13177 14 6.49996V14.5C14 14.8682 13.7015 15.1666 13.3333 15.1666H2.66667C2.29848 15.1666 2 14.8682 2 14.5V6.49996C2 6.13177 2.29848 5.83329 2.66667 5.83329H4V5.16663C4 2.95749 5.79086 1.16663 8 1.16663C10.2091 1.16663 12 2.95749 12 5.16663V5.83329ZM10.6667 5.83329V5.16663C10.6667 3.69387 9.47273 2.49996 8 2.49996C6.52724 2.49996 5.33333 3.69387 5.33333 5.16663V5.83329H10.6667Z" fill="#1C1C1C"/>
</svg>
