<svg width="48" height="49" viewBox="0 0 48 49" fill="none" xmlns="http://www.w3.org/2000/svg">
<path d="M10.6579 7.04316C13.1241 6.1664 15.9836 6.71498 17.9576 8.68892C19.9321 10.6634 20.4804 13.524 19.6026 15.9907L41.292 37.6804L37.0494 41.923L15.3577 20.2342C12.8916 21.111 10.032 20.5624 8.05806 18.5884C6.08356 16.6139 5.53522 13.7533 6.41304 11.2866L10.8865 15.76C12.0581 16.9316 13.9576 16.9316 15.1291 15.76C16.3007 14.5884 16.3007 12.6889 15.1291 11.5174L10.6579 7.04316ZM31.3926 10.8102L37.7566 7.27472L40.585 10.1031L37.0494 16.4671L33.5138 17.1742L29.2712 21.4168L26.4428 18.5884L30.6854 14.3458L31.3926 10.8102ZM17.2505 26.3666L21.493 30.6092L11.5936 40.5088C10.422 41.6804 8.52252 41.6804 7.35096 40.5088C6.2483 39.406 6.18344 37.6586 7.15636 36.48L7.35096 36.266L17.2505 26.3666Z" fill="#E0708A"/>
</svg>
