<svg width="41" height="41" viewBox="0 0 41 41" fill="none" xmlns="http://www.w3.org/2000/svg">
<path d="M21.2085 17.6312L20.4613 16.1171L19.714 17.6312L17.7037 21.7045L13.2085 22.3577L11.5376 22.6005L12.7467 23.7791L15.9994 26.9498L15.2315 31.4268L14.9461 33.0911L16.4407 32.3053L20.4613 30.1915L24.4818 32.3053L25.9763 33.091L25.6909 31.4268L24.9232 26.9498L28.1759 23.7791L29.3851 22.6005L27.7141 22.3577L23.2188 21.7045L21.2085 17.6312ZM20.4613 13.0001C27.3649 13.0001 32.9613 18.5964 32.9613 25.5C32.9613 32.4036 27.3649 38 20.4613 38C13.5577 38 7.96126 32.4036 7.96126 25.5C7.96126 18.5964 13.5577 13.0001 20.4613 13.0001ZM22.9628 8.17762L22.9616 4.66523L29.6279 4.66656V8.44339L28.0752 9.73896C26.4895 8.97166 24.7706 8.43648 22.9628 8.17762ZM11.2946 4.66656L17.9612 4.66523L17.9608 8.17745C16.1532 8.43616 14.4343 8.97117 12.8488 9.73828L11.2946 8.44309V4.66656Z" fill="#4A84B9" stroke="#4A84B9" stroke-width="1.66667"/>
</svg>
