<svg width="151" height="151" viewBox="0 0 151 151" fill="none" xmlns="http://www.w3.org/2000/svg">
<path d="M138.166 69.6257V119.626C138.166 123.078 135.368 125.876 131.916 125.876C128.464 125.876 125.666 123.078 125.666 119.626V107.126H25.666V119.626C25.666 123.078 22.8678 125.876 19.416 125.876C15.9642 125.876 13.166 123.078 13.166 119.626V32.1257C13.166 28.674 15.9642 25.8757 19.416 25.8757C22.8678 25.8757 25.666 28.674 25.666 32.1257V88.3757H75.666V54.6257C75.666 49.1029 80.1432 44.6257 85.666 44.6257H113.166C126.973 44.6257 138.166 55.8186 138.166 69.6257ZM50.666 82.1257C40.3107 82.1257 31.916 73.7314 31.916 63.3757C31.916 53.0204 40.3107 44.6257 50.666 44.6257C61.0213 44.6257 69.416 53.0204 69.416 63.3757C69.416 73.7314 61.0213 82.1257 50.666 82.1257Z" fill="#8D85B1"/>
</svg>
