<svg width="15" height="15" viewBox="0 0 15 15" fill="none" xmlns="http://www.w3.org/2000/svg">
<path d="M14.5155 7.69868C14.5155 11.5994 11.3504 14.7645 7.44966 14.7645C3.54896 14.7645 0.383789 11.5994 0.383789 7.69868C0.383789 3.79798 3.54896 0.632812 7.44966 0.632812C11.3504 0.632812 14.5155 3.79798 14.5155 7.69868Z" fill="#090909"/>
<path d="M11.8152 7.69799C11.8152 10.1134 9.8601 12.0732 7.44471 12.0732C5.02931 12.0732 3.07422 10.1134 3.07422 7.69799C3.07422 5.2826 5.02931 3.32275 7.44471 3.32275C9.8601 3.32275 11.8152 5.28259 11.8152 7.69799Z" fill="#121116"/>
<path d="M10.3224 7.69964C10.3224 9.29409 9.03167 10.5848 7.44197 10.5848C5.85227 10.5848 4.56152 9.29409 4.56152 7.69964C4.56152 6.1052 5.85227 4.81445 7.44197 4.81445C9.03167 4.81445 10.3224 6.1052 10.3224 7.69964Z" fill="url(#paint0_radial_2127_276)"/>
<defs>
<radialGradient id="paint0_radial_2127_276" cx="0" cy="0" r="1" gradientUnits="userSpaceOnUse" gradientTransform="translate(7.44672 7.69964) scale(2.88045 2.88044)">
<stop offset="0.27" stop-color="#00050D"/>
<stop offset="0.49" stop-color="#020810"/>
<stop offset="0.69" stop-color="#0A131B"/>
<stop offset="0.87" stop-color="#17242D"/>
<stop offset="0.93" stop-color="#1D2C35"/>
</radialGradient>
</defs>
</svg>
