<svg width="15" height="15" viewBox="0 0 15 15" fill="none" xmlns="http://www.w3.org/2000/svg">
<path d="M14.5146 7.69897C14.5146 11.5997 11.3495 14.7649 7.44873 14.7649C3.54801 14.7649 0.382813 11.5997 0.382813 7.69897C0.382813 3.79824 3.54801 0.633057 7.44873 0.633056C11.3495 0.633056 14.5146 3.79824 14.5146 7.69897Z" fill="#090909"/>
<path d="M11.8143 7.69851C11.8143 10.1139 9.85917 12.0738 7.44376 12.0738C5.02835 12.0738 3.07324 10.1139 3.07324 7.69851C3.07324 5.2831 5.02835 3.32324 7.44376 3.32324C9.85917 3.32324 11.8143 5.2831 11.8143 7.69851Z" fill="#121116"/>
<path d="M10.3215 7.70015C10.3215 9.29461 9.03072 10.5854 7.44101 10.5854C5.8513 10.5854 4.56055 9.29461 4.56055 7.70015C4.56055 6.10569 5.8513 4.81494 7.44101 4.81494C9.03072 4.81494 10.3215 6.10569 10.3215 7.70015Z" fill="url(#paint0_radial_2127_155)"/>
<defs>
<radialGradient id="paint0_radial_2127_155" cx="0" cy="0" r="1" gradientUnits="userSpaceOnUse" gradientTransform="translate(7.44576 7.70015) scale(2.88047 2.88046)">
<stop offset="0.27" stop-color="#00050D"/>
<stop offset="0.49" stop-color="#020810"/>
<stop offset="0.69" stop-color="#0A131B"/>
<stop offset="0.87" stop-color="#17242D"/>
<stop offset="0.93" stop-color="#1D2C35"/>
</radialGradient>
</defs>
</svg>
