<svg width="15" height="15" viewBox="0 0 15 15" fill="none" xmlns="http://www.w3.org/2000/svg">
<path d="M14.5155 7.69892C14.5155 11.5996 11.3504 14.7648 7.44966 14.7648C3.54896 14.7648 0.383789 11.5996 0.383789 7.69892C0.383789 3.79822 3.54896 0.633057 7.44966 0.633056C11.3504 0.633056 14.5155 3.79822 14.5155 7.69892Z" fill="#090909"/>
<path d="M11.8152 7.69848C11.8152 10.1139 9.8601 12.0737 7.44471 12.0737C5.02931 12.0737 3.07422 10.1139 3.07422 7.69848C3.07422 5.28308 5.02931 3.32324 7.44471 3.32324C9.8601 3.32324 11.8152 5.28308 11.8152 7.69848Z" fill="#121116"/>
<path d="M10.3224 7.70013C10.3224 9.29458 9.03167 10.5853 7.44197 10.5853C5.85227 10.5853 4.56152 9.29458 4.56152 7.70013C4.56152 6.10568 5.85227 4.81494 7.44197 4.81494C9.03167 4.81494 10.3224 6.10568 10.3224 7.70013Z" fill="url(#paint0_radial_2127_305)"/>
<defs>
<radialGradient id="paint0_radial_2127_305" cx="0" cy="0" r="1" gradientUnits="userSpaceOnUse" gradientTransform="translate(7.44672 7.70013) scale(2.88045 2.88044)">
<stop offset="0.27" stop-color="#00050D"/>
<stop offset="0.49" stop-color="#020810"/>
<stop offset="0.69" stop-color="#0A131B"/>
<stop offset="0.87" stop-color="#17242D"/>
<stop offset="0.93" stop-color="#1D2C35"/>
</radialGradient>
</defs>
</svg>
