<svg width="5" height="7" viewBox="0 0 5 7" fill="none" xmlns="http://www.w3.org/2000/svg">
<path d="M2.44556 0.814941C1.60563 0.814941 0.855842 1.18034 0.329102 1.75928C0.855842 2.33347 1.60563 2.70361 2.44556 2.70361C3.2855 2.70361 4.03527 2.33347 4.56201 1.75928C4.03527 1.18508 3.2855 0.814941 2.44556 0.814941Z" fill="url(#paint0_linear_2127_159)"/>
<path d="M2.44556 6.58667C1.60563 6.58667 0.855842 6.21653 0.329102 5.64233C0.855842 5.06814 1.60563 4.698 2.44556 4.698C3.2855 4.698 4.03527 5.06814 4.56201 5.64233C4.03527 6.21653 3.2855 6.58667 2.44556 6.58667Z" fill="url(#paint1_linear_2127_159)"/>
<defs>
<linearGradient id="paint0_linear_2127_159" x1="2.41234" y1="0.411582" x2="2.47877" y2="3.31577" gradientUnits="userSpaceOnUse">
<stop offset="0.15" stop-color="#4A4759"/>
<stop offset="0.83" stop-color="#071017"/>
</linearGradient>
<linearGradient id="paint1_linear_2127_159" x1="2.41234" y1="6.99003" x2="2.48352" y2="3.87704" gradientUnits="userSpaceOnUse">
<stop offset="0.18" stop-color="#323B43"/>
<stop offset="0.89" stop-color="#0F1820"/>
</linearGradient>
</defs>
</svg>
