<svg width="5" height="7" viewBox="0 0 5 7" fill="none" xmlns="http://www.w3.org/2000/svg">
<path d="M2.44457 0.814453C1.60464 0.814453 0.854862 1.17985 0.328125 1.75878C0.854862 2.33297 1.60464 2.70311 2.44457 2.70311C3.28451 2.70311 4.03427 2.33297 4.56101 1.75878C4.03427 1.18459 3.28451 0.814453 2.44457 0.814453Z" fill="url(#paint0_linear_2127_309)"/>
<path d="M2.44457 6.58592C1.60464 6.58592 0.854862 6.21579 0.328125 5.64159C0.854862 5.0674 1.60464 4.69727 2.44457 4.69727C3.28451 4.69727 4.03427 5.0674 4.56101 5.64159C4.03427 6.21579 3.28451 6.58592 2.44457 6.58592Z" fill="url(#paint1_linear_2127_309)"/>
<defs>
<linearGradient id="paint0_linear_2127_309" x1="2.41135" y1="0.411096" x2="2.47778" y2="3.31526" gradientUnits="userSpaceOnUse">
<stop offset="0.15" stop-color="#4A4759"/>
<stop offset="0.83" stop-color="#071017"/>
</linearGradient>
<linearGradient id="paint1_linear_2127_309" x1="2.41135" y1="6.98928" x2="2.48253" y2="3.87632" gradientUnits="userSpaceOnUse">
<stop offset="0.18" stop-color="#323B43"/>
<stop offset="0.89" stop-color="#0F1820"/>
</linearGradient>
</defs>
</svg>
