<svg width="131" height="130" viewBox="0 0 131 130" fill="none" xmlns="http://www.w3.org/2000/svg">
<path fill-rule="evenodd" clip-rule="evenodd" d="M62.4799 0.0560529C42.8087 0.867051 25.3938 10.4205 14.0175 24.9338L26.0631 29.5667L26.7041 29.8132V30.5V37.2629L37.296 40.5448L37.6774 40.663L37.8725 41.0114L44.8725 53.5114L43.1275 54.4886L36.3226 42.337L25.4081 38.9552L24.7041 38.7371V38V31.1868L12.7594 26.5927C4.86587 37.353 0.204102 50.6321 0.204102 65C0.204102 69.599 0.68173 74.0865 1.59009 78.4155L19.5708 74.6118L23.8466 67.4855L24.1613 66.961L24.7715 67.0023L39.5674 68.0023L39.4326 69.9977L25.2469 69.039L21.0616 76.0145L20.8374 76.3882L20.4111 76.4783L2.0311 80.3664C7.36074 102.354 23.8713 119.974 45.2041 126.865V116.262L40.8325 108.49L40.3883 107.7L41.1306 107.181L54.6168 97.7404L37.6278 90.9282L37.1103 90.7206L37.0148 90.1713L35.0148 78.6713L36.9852 78.3287L38.8897 89.2794L57.0763 96.5718L57.3478 96.6807L57.5178 96.9188L70.0178 114.419L70.2436 114.735L70.1968 115.12L68.4026 129.923C80.8597 129.319 92.3963 125.209 102.047 118.558L91.4314 105.635L91.1056 105.238L91.2379 104.742L93.0161 98.0741L84.6014 94.4171L83.909 94.1162L84.0088 93.3678L86.0088 78.3678L87.9912 78.6322L86.091 92.8838L94.6027 96.5829L95.3921 96.9259L95.1703 97.7577L93.3026 104.762L103.68 117.395C119.765 105.562 130.204 86.5002 130.204 65C130.204 51.4697 126.07 38.905 118.996 28.5H110.381L105.428 40.8716L105.143 41.5836L104.382 41.493L83.8852 39.0529L70.2311 53.6823L68.7689 52.3177L82.7689 37.3177L83.1148 36.9471L83.6182 37.007L103.857 39.4164L108.776 27.1284L109.027 26.5H109.704H117.581C105.747 10.4281 86.6934 0 65.2041 0C65.0767 0 64.9494 0.000366468 64.8222 0.00109841L71.5453 10.4592L71.6646 10.6448L71.6947 10.8634L73.6947 25.3634L73.785 26.0177L73.2186 26.3575L61.4329 33.4289L64.1404 40.6489L64.3387 41.1777L63.9883 41.6205L55.2842 52.6205L53.7158 51.3795L62.0695 40.8223L59.2678 33.3511L58.9753 32.5711L59.6896 32.1425L71.6232 24.9823L69.7436 11.3552L62.4799 0.0560529ZM66.3799 129.99L68.1646 115.265L56.4661 98.8873L43.02 108.3L47.0757 115.51L47.2041 115.738V116V127.475C52.9201 129.119 58.9593 130 65.2041 130C65.5968 130 65.9888 129.997 66.3799 129.99Z" fill="#4A84B9"/>
</svg>
