<svg width="33" height="92" viewBox="0 0 33 92" fill="none" xmlns="http://www.w3.org/2000/svg">
<path d="M0.14209 0C1.22431 2.69433 2.85185 5.13473 4.9221 7.16732C6.99235 9.1999 9.46039 10.7806 12.1706 11.8097C12.1518 6.20572 6.05314 0.150442 0.14209 0ZM12.3583 82.2164C16.4491 77.1014 21.9285 74.0738 26.0381 75.9919C22.6604 82.743 15.7923 85.15 12.3583 82.2164ZM18.7572 72.2873C21.6283 66.6457 26.3759 62.6214 30.7857 63.6745C28.8154 70.8581 22.6791 74.4875 18.7572 72.2873ZM22.9231 61.4931C24.6119 55.513 28.5526 50.6237 33 50.8117C32.4558 58.1834 27.2015 62.8659 22.9231 61.4931ZM24.7996 50.2099C25.2875 44.0418 28.1398 38.4755 32.6247 37.7797C33.5817 45.1325 29.247 50.7741 24.8747 50.2099H24.7996ZM24.5181 38.7764C23.8238 32.6271 25.5314 26.5718 29.7724 25.0109C32.1743 32.0817 29.0593 38.4003 24.5932 38.7764H24.5181ZM22.0411 27.4932C20.1646 21.5696 20.5774 15.2134 24.4243 12.8252C28.2336 19.4822 26.4134 26.3273 22.1162 27.5685L22.0411 27.4932ZM17.4061 16.9247C14.3286 11.4148 13.334 4.98338 16.618 1.88052C21.7409 7.74775 21.3843 14.8937 17.4061 16.9247ZM14.7227 18.4667C10.7069 20.5729 5.54647 18.6172 2.05614 14.7057C5.30253 11.6592 11.5889 13.0132 14.7227 18.5043V18.4667ZM19.17 28.5463C14.8165 29.8251 10.1627 26.9479 7.62942 22.5475C11.4388 20.1592 17.2372 22.5663 19.17 28.5463ZM21.5157 39.1525C17.012 39.5474 13.015 35.8428 11.42 31.1226C15.6234 29.5242 20.7838 33.022 21.5157 39.1525ZM21.7409 49.9655C17.256 49.4765 14.0284 45.0573 13.3903 40.1491C17.8565 39.491 22.2288 43.8162 21.7409 49.9655ZM19.8643 60.6656C15.5483 59.2929 13.2402 54.3095 13.578 49.3825C18.1379 49.533 21.572 54.6856 19.8643 60.6656ZM15.9236 70.8769C11.9642 68.6767 10.7257 63.3548 12.0017 58.4654C16.4491 59.4997 18.8323 65.2729 15.9987 70.8769H15.9236ZM9.90001 80.2795C6.46597 77.3271 6.40968 71.6855 8.64274 67.1158C12.8086 69.0528 13.9908 75.2209 9.97507 80.2795H9.90001ZM0.517395 90.4155C12.0506 81.7728 19.8402 69.0293 22.2835 54.8066C24.7269 40.5839 21.6383 25.9637 13.6531 13.9535C21.9527 25.9984 25.3223 40.7764 23.0666 55.2384C20.811 69.7004 13.1022 82.743 1.53072 91.6755C1.00529 92.0892 0.367271 92.1268 0.104561 91.6755C-0.158154 91.2241 0.104557 90.7352 0.554924 90.3403L0.517395 90.4155Z" fill="black"/>
</svg>
