<svg width="33" height="92" viewBox="0 0 33 92" fill="none" xmlns="http://www.w3.org/2000/svg">
<path d="M32.8579 0C31.7757 2.69433 30.1481 5.13473 28.0779 7.16732C26.0077 9.1999 23.5396 10.7806 20.8294 11.8097C20.8482 6.20572 26.9469 0.150442 32.8579 0ZM20.6417 82.2164C16.5509 77.1014 11.0715 74.0738 6.9619 75.9919C10.3396 82.743 17.2077 85.15 20.6417 82.2164ZM14.2428 72.2873C11.3717 66.6457 6.62412 62.6214 2.2143 63.6745C4.18465 70.8581 10.3209 74.4875 14.2428 72.2873ZM10.0769 61.4931C8.38806 55.513 4.44736 50.6237 0 50.8117C0.544192 58.1834 5.79845 62.8659 10.0769 61.4931ZM8.2004 50.2099C7.71251 44.0418 4.86019 38.4755 0.375305 37.7797C-0.581722 45.1325 3.75305 50.7741 8.12534 50.2099H8.2004ZM8.48188 38.7764C9.1762 32.6271 7.46856 26.5718 3.22762 25.0109C0.82567 32.0817 3.9407 38.4003 8.40682 38.7764H8.48188ZM10.9589 27.4932C12.8354 21.5696 12.4226 15.2134 8.57571 12.8252C4.76637 19.4822 6.5866 26.3273 10.8838 27.5685L10.9589 27.4932ZM15.5939 16.9247C18.6714 11.4148 19.666 4.98338 16.382 1.88052C11.2591 7.74775 11.6157 14.8937 15.5939 16.9247ZM18.2773 18.4667C22.2931 20.5729 27.4535 18.6172 30.9439 14.7057C27.6975 11.6592 21.4111 13.0132 18.2773 18.5043V18.4667ZM13.83 28.5463C18.1835 29.8251 22.8373 26.9479 25.3706 22.5475C21.5612 20.1592 15.7628 22.5663 13.83 28.5463ZM11.4843 39.1525C15.988 39.5474 19.985 35.8428 21.58 31.1226C17.3766 29.5242 12.2162 33.022 11.4843 39.1525ZM11.2591 49.9655C15.744 49.4765 18.9716 45.0573 19.6097 40.1491C15.1435 39.491 10.7712 43.8162 11.2591 49.9655ZM13.1357 60.6656C17.4517 59.2929 19.7598 54.3095 19.422 49.3825C14.8621 49.533 11.428 54.6856 13.1357 60.6656ZM17.0764 70.8769C21.0358 68.6767 22.2743 63.3548 20.9983 58.4654C16.5509 59.4997 14.1677 65.2729 17.0013 70.8769H17.0764ZM23.1 80.2795C26.534 77.3271 26.5903 71.6855 24.3573 67.1158C20.1914 69.0528 19.0092 75.2209 23.0249 80.2795H23.1ZM32.4826 90.4155C20.9494 81.7728 13.1598 69.0293 10.7165 54.8066C8.27312 40.5839 11.3617 25.9637 19.3469 13.9535C11.0473 25.9984 7.67772 40.7764 9.93336 55.2384C12.189 69.7004 19.8978 82.743 31.4693 91.6755C31.9947 92.0892 32.6327 92.1268 32.8954 91.6755C33.1582 91.2241 32.8954 90.7352 32.4451 90.3403L32.4826 90.4155Z" fill="black"/>
</svg>
