<svg width="396" height="396" viewBox="0 0 396 396" fill="none" xmlns="http://www.w3.org/2000/svg">
<rect x="122.857" y="2.30085" width="296.4" height="296.4" rx="54.6" transform="rotate(24 122.857 2.30085)" fill="#1C6FFF"/>
<rect x="122.857" y="2.30085" width="296.4" height="296.4" rx="54.6" transform="rotate(24 122.857 2.30085)" stroke="url(#paint0_linear_2135_4665)" stroke-width="3.12"/>
<path d="M192.258 210.793L173.482 292.488C171.174 302.533 160.272 307.975 150.857 303.783C141.441 299.591 138.191 287.848 144.111 279.411L192.258 210.793Z" fill="white"/>
<path d="M203.678 185.141L251.826 116.523C257.746 108.086 254.496 96.3431 245.08 92.151C235.664 87.9589 224.763 93.4008 222.454 103.446L203.678 185.141Z" fill="white"/>
<path d="M185.142 192.256L103.447 173.48C93.4024 171.172 87.9605 160.27 92.1526 150.855C96.3448 141.439 108.087 138.189 116.524 144.109L185.142 192.256Z" fill="white"/>
<path d="M210.793 203.677L279.411 251.825C287.848 257.745 299.59 254.495 303.783 245.079C307.975 235.663 302.533 224.762 292.488 222.453L210.793 203.677Z" fill="white"/>
<path d="M192.933 184.859L148.443 113.815C142.972 105.08 146.833 93.5238 156.455 89.8302C166.077 86.1366 176.679 92.1416 178.458 102.294L192.933 184.859Z" fill="white"/>
<path d="M202.995 211.072L217.47 293.638C219.25 303.79 229.852 309.795 239.474 306.101C249.096 302.408 252.956 290.851 247.486 282.116L202.995 211.072Z" fill="white"/>
<path d="M211.075 192.937L282.119 148.446C290.854 142.976 302.411 146.836 306.104 156.459C309.798 166.081 303.793 176.682 293.641 178.462L211.075 192.937Z" fill="white"/>
<path d="M184.862 202.998L102.296 217.473C92.1445 219.253 86.1396 229.855 89.8332 239.477C93.5268 249.099 105.083 252.959 113.818 247.489L184.862 202.998Z" fill="white"/>
<defs>
<linearGradient id="paint0_linear_2135_4665" x1="277.286" y1="47.8212" x2="291.326" y2="313.801" gradientUnits="userSpaceOnUse">
<stop stop-color="white" stop-opacity="0"/>
<stop offset="1" stop-color="white"/>
</linearGradient>
</defs>
</svg>
